<?xml version="1.0" encoding="UTF-8" standalone="no"?>
<!-- Generator: Adobe Illustrator 21.0.0, SVG Export Plug-In . SVG Version: 6.00 Build 0)  -->

<svg
   xmlns:dc="http://purl.org/dc/elements/1.1/"
   xmlns:cc="http://creativecommons.org/ns#"
   xmlns:rdf="http://www.w3.org/1999/02/22-rdf-syntax-ns#"
   xmlns:svg="http://www.w3.org/2000/svg"
   xmlns="http://www.w3.org/2000/svg"
   xmlns:sodipodi="http://sodipodi.sourceforge.net/DTD/sodipodi-0.dtd"
   xmlns:inkscape="http://www.inkscape.org/namespaces/inkscape"
   version="1.1"
   id="Camada_1"
   x="0px"
   y="0px"
   width="200"
   height="100"
   viewBox="0 0 288 560"
   xml:space="preserve"
   inkscape:version="0.91 r13725"
   sodipodi:docname="1.svg"><metadata
     id="metadata3445"><rdf:RDF><cc:Work
         rdf:about=""><dc:format>image/svg+xml</dc:format><dc:type
           rdf:resource="http://purl.org/dc/dcmitype/StillImage" /><dc:title></dc:title></cc:Work></rdf:RDF></metadata><defs
     id="defs3443" /><sodipodi:namedview
     pagecolor="#ffffff"
     bordercolor="#666666"
     borderopacity="1"
     objecttolerance="10"
     gridtolerance="10"
     guidetolerance="10"
     inkscape:pageopacity="0"
     inkscape:pageshadow="2"
     inkscape:window-width="1920"
     inkscape:window-height="1055"
     id="namedview3441"
     showgrid="false"
     inkscape:zoom="2.1895056"
     inkscape:cx="37.270036"
     inkscape:cy="34.500053"
     inkscape:window-x="1366"
     inkscape:window-y="0"
     inkscape:window-maximized="1"
     inkscape:current-layer="Camada_1" /><style
     type="text/css"
     id="style3429">
	.st0{fill:#FFFFFF;}
</style><style
     id="style3429-3"
     type="text/css">
	.st0{fill:#FFFFFF;}
</style><path
     inkscape:connector-curvature="0"
     style="fill:#ffffff"
     id="path3439"
     d="m -66.047844,194.57588 c 21.484236,0 34.121927,13.90165 35.385754,38.96666 0.421296,9.47841 -1.474126,16.21856 -5.897557,20.64184 -6.950769,7.16143 -18.324963,6.52954 -28.013716,5.89762 l -2.738322,-0.21064 c -38.755985,-1.68504 -59.818955,3.58071 -66.559415,6.9508 2.94896,0.84253 8.63588,1.47442 18.53561,1.05314 73.931465,-2.94882 149.12643,-1.89566 222.00471,-0.84249 36.22833,0.63188 73.93146,1.05311 110.79171,1.05311 1.26383,0 2.73831,0 4.21246,0 14.95473,0 31.80523,-0.21062 41.49431,10.11028 5.68694,5.89768 8.21462,14.32289 7.79334,25.69696 -1.26385,31.38395 -28.22439,31.17331 -48.02382,31.17331 -1.47448,0 -3.15925,0 -4.63373,0 -29.06724,0 -57.92351,0 -86.99044,0 -52.868202,0 -107.421821,0 -161.132569,0.42128 -3.369903,0 -4.212454,3.15946 -4.212454,4.84451 0,1.05313 0.21162,2.73818 1.685123,2.73818 4.212454,0.21064 8.846184,0 13.058981,0 6.108204,-0.21063 12.4270501,-0.21063 18.74624483,0.42128 27.17116117,2.52755 40.23015517,21.69494 40.65142417,38.54539 0.421276,14.11225 -7.582686,24.85439 -20.220398,26.7501 -19.37816913,2.31692 -21.0629429,6.52954 -21.0629429,6.52954 -0.2116332,0.42126 0.21160586,1.89565 2.5273385,4.21259 16.0079374,15.58666 22.3267894,28.64578 19.5888104,40.0198 -3.791514,15.37606 -24.0119196,23.59066 -41.704959,29.06706 -0.842565,1.05312 -1.685109,1.89565 -2.317032,2.52754 0,0 -0.211606,0.21065 -0.211606,0.21065 0.842551,0.42126 1.685109,1.05315 2.52766,1.68503 l 0.842565,0.42125 0.421261,0.84255 c 15.3760344,23.80126 19.58849565,39.38794 13.690898,50.55135 -5.686909,10.74217 -20.641667,16.00792 -46.970585,16.63982 -73.93114,1.68503 -134.59299,1.68503 -190.19949,-0.21065 -66.1378,-2.317 -118.3744,-30.12023 -151.02218,-80.88218 -12.21643,-19.16739 -15.37602,-39.59857 -15.37602,-60.24037 0,-11.16339 0.84256,-22.32682 1.89574,-33.2796 1.05321,-12.42723 2.1064,-25.48632 1.68513,-37.7029 -2.52766,-81.30341 40.44111,-136.06736 117.53184,-150.17962 52.86819,-9.689 107.42148,-7.79332 160.07936,-6.10831 20.43104,0.84253 41.493992,1.68505 62.135987,1.68505 z m -220.530236,12.84847 c -72.66763,13.26973 -112.8981,64.87424 -110.58107,141.7544 0.42128,12.84847 -0.63193,25.90759 -1.68511,38.75604 -2.52768,31.59459 -5.05502,61.29352 12.21642,88.25422 31.38396,48.86626 80.03968,74.77387 144.07142,77.0908 55.6065,1.89569 115.84707,1.89569 189.778181,0.21065 22.748093,-0.63189 35.596754,-4.4232 39.809222,-12.21654 1.053193,-1.89569 1.474475,-4.21262 1.474475,-6.95079 0,-8.004 -4.844378,-19.37806 -14.322835,-34.54343 -0.842537,-0.42131 -1.474454,-0.84256 -1.895743,-1.2638 -2.527674,-1.47444 -4.63373,-2.73817 -5.055019,-5.47641 -0.421283,-2.7382 1.263511,-4.63386 3.580537,-7.37208 0.842565,-0.84253 1.685116,-2.10629 2.94895,-3.37006 l 0.842564,-1.05316 1.263827,-0.42126 c 23.1693476,-6.95084 34.964495,-14.32288 37.070893,-23.38001 1.895757,-8.21457 -3.7915002,-18.95675 -17.2717771,-32.01582 -4.4230888,-4.42328 -5.8975639,-8.84652 -4.63373,-12.8485 2.1060562,-6.31892 10.9525895,-10.11025 27.8030911,-12.21657 9.899705,-1.47442 13.269615,-10.74217 13.058981,-18.11425 -0.421289,-13.26972 -10.952589,-28.43509 -33.0687379,-30.54142 -5.8979124,-0.63189 -11.7954761,-0.42125 -17.9036871,-0.21064 -4.423438,0 -9.057168,0.21064 -13.480277,0 -5.687258,-0.21064 -9.899726,-5.05512 -9.689085,-11.37404 0,-6.31892 4.633737,-13.0591 12.637706,-13.26972 53.710747,-0.42128 108.4747,-0.42128 161.132554,-0.42128 29.06693,0 57.92321,0 86.99044,0 1.47448,0 3.15928,0 4.63376,0 24.0119,0.21064 38.54536,-1.26377 39.38791,-23.16935 0.42128,-8.84649 -1.47448,-15.16541 -5.47628,-19.37802 -7.37207,-7.58269 -21.69489,-7.58269 -35.38611,-7.37209 -1.47415,0 -2.73799,0 -4.21246,0 -37.07088,0 -74.56338,-0.63189 -111.00234,-1.05313 -72.66765,-1.05318 -147.862615,-2.31694 -221.58344,0.84253 -24.43319,1.05313 -27.38182,-4.21262 -28.43501,-5.89769 -1.26383,-2.10629 -1.26383,-4.42323 0,-6.5295 5.4763,-9.05714 37.49219,-14.32291 76.248175,-12.63785 l 2.738322,0.21064 c 8.425235,0.42128 17.27144,0.84252 21.694857,-3.5807 2.738315,-2.73822 3.791192,-7.58273 3.580551,-14.32291 -1.052891,-20.43115 -10.110031,-30.9627 -27.171179,-30.9627 -20.852308,0 -41.915586,-0.84252 -62.346616,-1.47441 -51.81531,-1.26377 -105.7367,-3.15946 -157.76233,6.31892 z"
     class="st0" /></svg>