<?xml version="1.0" encoding="UTF-8" standalone="no"?>
<!-- Generator: Adobe Illustrator 21.0.0, SVG Export Plug-In . SVG Version: 6.00 Build 0)  -->

<svg
   xmlns:dc="http://purl.org/dc/elements/1.1/"
   xmlns:cc="http://creativecommons.org/ns#"
   xmlns:rdf="http://www.w3.org/1999/02/22-rdf-syntax-ns#"
   xmlns:svg="http://www.w3.org/2000/svg"
   xmlns="http://www.w3.org/2000/svg"
   xmlns:sodipodi="http://sodipodi.sourceforge.net/DTD/sodipodi-0.dtd"
   xmlns:inkscape="http://www.inkscape.org/namespaces/inkscape"
   version="1.1"
   id="Camada_1"
   x="0px"
   y="0px"
   width="200"
   height="100"
   viewBox="0 0 288 560"
   xml:space="preserve"
   inkscape:version="0.91 r13725"
   sodipodi:docname="2.svg"><metadata
     id="metadata3445"><rdf:RDF><cc:Work
         rdf:about=""><dc:format>image/svg+xml</dc:format><dc:type
           rdf:resource="http://purl.org/dc/dcmitype/StillImage" /><dc:title></dc:title></cc:Work></rdf:RDF></metadata><defs
     id="defs3443" /><sodipodi:namedview
     pagecolor="#ffffff"
     bordercolor="#666666"
     borderopacity="1"
     objecttolerance="10"
     gridtolerance="10"
     guidetolerance="10"
     inkscape:pageopacity="0"
     inkscape:pageshadow="2"
     inkscape:window-width="1920"
     inkscape:window-height="1055"
     id="namedview3441"
     showgrid="false"
     inkscape:zoom="2.1895056"
     inkscape:cx="61.116785"
     inkscape:cy="24.698856"
     inkscape:window-x="1366"
     inkscape:window-y="0"
     inkscape:window-maximized="1"
     inkscape:current-layer="Camada_1" /><style
     type="text/css"
     id="style3429">
	.st0{fill:#FFFFFF;}
</style><path
     class="st0"
     d="m 193.86974,196.35441 c 3.31771,-0.41469 6.6351,-1.24407 10.36753,-1.86611 15.34375,-3.11023 32.76108,-6.42781 44.99449,2.07347 6.84246,4.76901 11.19694,13.06292 12.85548,24.4671 4.7692,32.96834 -24.67418,37.52999 -46.03127,41.05493 -2.90268,0.4147 -5.80568,0.8294 -8.50132,1.45144 -60.96032,11.19682 -123.164781,22.3936 -183.295668,32.96835 l -41.055042,7.46456 c -2.280914,0.41467 -4.768885,0.82938 -7.049799,1.03674 -15.136406,2.07347 -23.637721,3.93959 -22.80829,18.24663 0.622068,13.89233 9.53809,15.13643 24.052428,15.9658 2.695637,0.20735 5.390954,0.20735 8.086591,0.62207 l 6.6350923,0.8294 c 80.4512227,9.53799 163.8050977,19.28337 245.7078177,28.19932 1.86589,0.20736 3.52474,0.41471 5.39096,0.62207 16.38054,1.65877 33.1758,3.31755 42.0915,14.72172 5.18391,6.63514 6.63541,15.34377 4.97656,26.7479 -4.97656,31.93163 -33.17581,28.82141 -55.98408,26.33322 l -3.31771,-0.41468 C 186.81995,432.10933 141.82545,427.54768 98.282131,423.4007 80.657776,421.7419 63.033094,419.87579 45.408412,418.217 l -0.414724,0 c -9.745436,-1.65879 -19.69793,-1.65879 -29.858089,-1.03675 3.11036,1.86614 6.220384,4.35431 9.123383,7.46452 l 0.414707,0.41471 c 14.929045,22.18625 11.403977,41.88435 -10.574867,57.02077 l -0.622069,0.41469 c -7.8792454,3.52491 -15.9658368,5.80576 -23.845067,7.46452 1.6588457,1.03675 3.3177069,2.07351 4.7692064,3.31758 14.5143216,9.12332 21.3567746,23.223 17.8317226,36.70064 -3.1100394,12.02619 -15.758475,25.29647 -42.091513,26.7479 -26.74805,1.24409 -53.910502,1.03675 -80.036502,0.8294 -11.19661,-0.20736 -23.01563,-0.20736 -34.41961,-0.20736 -9.74545,0 -19.69825,0 -29.4437,0 -22.60093,0.20736 -46.23864,0.20736 -69.25427,-0.20734 -109.06516,-2.28084 -164.42718,-58.47221 -164.42718,-167.33002 0,0 0,0 0,-0.20736 0,-64.48529 10.57487,-108.8578 32.96845,-139.54535 22.80828,-31.10224 58.88707,-48.51947 110.72402,-53.49584 41.05503,-3.93962 82.93918,-3.11022 123.5795,-2.48818 19.28352,0.20736 38.98145,0.62207 58.472359,0.4147 12.855476,-0.20734 19.905275,12.23354 26.12566,23.223 4.769205,8.50129 9.330745,16.38052 15.136406,17.41728 21.564137,-3.52494 43.1286104,-7.25721 64.692747,-10.78214 55.569364,-9.53799 113.004618,-19.28338 169.610758,-27.99201 z m -233.474074,46.8607 -0.622069,0 -0.622069,0 c -10.367201,-1.24407 -16.173199,-11.6115 -21.97886,-21.77156 -5.598316,-9.74536 -10.782229,-19.07602 -18.868499,-19.07602 -19.490909,0.20736 -39.396179,-0.20736 -58.679729,-0.41471 -40.43295,-0.62204 -82.10974,-1.24409 -122.54272,2.48818 -49.97104,4.76901 -83.14652,20.52749 -104.71099,49.97092 -21.35678,29.23609 -31.51694,72.15717 -31.51694,134.77632 0,0 0,0 0,0.20736 0,104.91818 51.21519,156.75523 156.34059,159.03606 23.01563,0.41469 46.44598,0.41469 69.04691,0.20737 9.95281,0 19.69825,0 29.65106,0 11.40398,0 23.22298,0.20734 34.41961,0.20734 26.125986,0.20736 53.081092,0.62205 79.621797,-0.82938 18.246751,-0.8294 31.3095889,-8.70863 34.4196127,-20.52747 0.4147233,-1.6588 0.6220689,-3.11024 0.6220689,-4.76902 0,-8.50128 -5.39095391,-16.7952 -15.1364066,-22.80829 l -0.414707,-0.41471 c -8.293953,-7.04984 -18.453792,-7.04984 -29.028659,-7.04984 -2.695638,0 -5.390954,0 -8.086592,-0.20735 l 0.208309,-8.29392 c 16.380544,0.20735 37.5299735,-0.62204 57.2282243,-9.33068 C 27.57733,462.17483 30.272968,447.86782 18.03956,429.62116 11.197107,422.36396 3.1105155,419.25374 -9.3305745,418.83906 l -0.2083084,-8.29392 c 3.3177064,-0.20736 6.8424374,-0.62207 10.16015986,-0.8294 14.92904504,-1.45143 30.27279704,-2.9029 45.61654904,-0.20736 17.624698,1.6588 35.042019,3.52491 52.666374,5.18371 43.54332,4.35432 88.53781,8.70863 132.70288,13.47764 l 3.31771,0.41467 c 25.91863,2.90291 43.33563,3.11024 46.8607,-19.28336 1.4515,-9.12332 0.41471,-15.75845 -3.31771,-20.52746 -6.63509,-8.70863 -21.7715,-10.16006 -36.28583,-11.6115 -1.86621,-0.20736 -3.73242,-0.41472 -5.59832,-0.62207 -81.9027,-8.91595 -165.256583,-18.86866 -245.7078056,-28.19934 l -6.6350914,-0.8294 c -2.280931,-0.20734 -4.976247,-0.4147 -7.464523,-0.62203 -12.855476,-0.62207 -30.68752,-1.65878 -31.724313,-23.84507 -1.244137,-22.80827 16.795268,-25.08911 30.065452,-26.95525 2.28093,-0.41468 4.561844,-0.62204 6.635092,-1.03675 l 41.055042,-7.46452 c 60.130886,-10.7821 122.127987,-21.97892 183.088327,-32.96838 2.69563,-0.41468 5.59862,-1.03672 8.70866,-1.45144 25.91863,-4.14694 42.50652,-8.50127 39.18914,-31.5169 -1.24414,-9.12332 -4.3545,-15.34377 -9.33073,-18.86871 -9.12339,-6.42779 -24.88186,-3.52489 -38.56707,-0.82938 -3.73211,0.82938 -7.25718,1.45143 -10.78193,1.86614 -56.60614,8.70863 -113.834035,18.45398 -169.403398,27.78465 -21.7718196,4.35431 -43.543318,8.08659 -65.314816,11.6115 z"
     id="path3437"
     style="fill:#ffffff"
     inkscape:connector-curvature="0" /><style
     id="style3429-1"
     type="text/css">
	.st0{fill:#FFFFFF;}
</style></svg>