<?xml version="1.0" encoding="UTF-8" standalone="no"?>
<!-- Generator: Adobe Illustrator 21.0.0, SVG Export Plug-In . SVG Version: 6.00 Build 0)  -->

<svg
   xmlns:dc="http://purl.org/dc/elements/1.1/"
   xmlns:cc="http://creativecommons.org/ns#"
   xmlns:rdf="http://www.w3.org/1999/02/22-rdf-syntax-ns#"
   xmlns:svg="http://www.w3.org/2000/svg"
   xmlns="http://www.w3.org/2000/svg"
   xmlns:sodipodi="http://sodipodi.sourceforge.net/DTD/sodipodi-0.dtd"
   xmlns:inkscape="http://www.inkscape.org/namespaces/inkscape"
   version="1.1"
   id="Camada_1"
   x="0px"
   y="0px"
   width="200"
   height="100"
   viewBox="0 0 288 560"
   xml:space="preserve"
   inkscape:version="0.91 r13725"
   sodipodi:docname="3.svg"><metadata
     id="metadata3445"><rdf:RDF><cc:Work
         rdf:about=""><dc:format>image/svg+xml</dc:format><dc:type
           rdf:resource="http://purl.org/dc/dcmitype/StillImage" /><dc:title></dc:title></cc:Work></rdf:RDF></metadata><defs
     id="defs3443" /><sodipodi:namedview
     pagecolor="#ffffff"
     bordercolor="#666666"
     borderopacity="1"
     objecttolerance="10"
     gridtolerance="10"
     guidetolerance="10"
     inkscape:pageopacity="0"
     inkscape:pageshadow="2"
     inkscape:window-width="1920"
     inkscape:window-height="1055"
     id="namedview3441"
     showgrid="false"
     inkscape:zoom="2.1895056"
     inkscape:cx="61.116785"
     inkscape:cy="24.698856"
     inkscape:window-x="1366"
     inkscape:window-y="0"
     inkscape:window-maximized="1"
     inkscape:current-layer="Camada_1" /><style
     type="text/css"
     id="style3429">
	.st0{fill:#FFFFFF;}
</style><style
     id="style3429-1"
     type="text/css">
	.st0{fill:#FFFFFF;}
</style><path
     inkscape:connector-curvature="0"
     style="fill:#ffffff"
     id="path3435"
     d="m -138.40971,27.51445 c 34.27829,55.1795 11.49592,105.13367 -14.63091,151.53463 -1.8808,3.55324 -4.18005,6.89744 -6.06118,10.24165 -12.54081,20.69234 -23.40962,38.66749 -7.10656,61.03191 18.39333,25.0816 45.77387,19.22924 72.527795,13.58587 l 0.41796,0 C 5.6006353,243.00715 101.74686,222.10583 192.4585,201.83153 l 3.34436,-0.83606 c 20.06513,-4.59828 44.93777,-10.24165 53.0893,20.48333 2.92632,11.2867 2.29925,20.27429 -2.09021,27.38074 -7.52447,12.33178 -24.24557,15.88503 -40.75766,19.43825 -69.18336,14.83993 -137.739645,30.72494 -213.8203949,48.28206 -3.3443601,0.83604 -7.3154601,1.2541 -11.0778501,1.6721 -15.88501,1.88114 -23.20054,3.76225 -22.57345,14.21291 0.21011,3.97128 1.2542,6.68846 3.34446,8.36053 4.18006,3.55324 12.9586,2.50816 20.69215,1.67211 3.76238,-0.41801 7.31544,-0.83605 10.6597899,-0.83605 32.3971101,0.41804 65.4209701,0.20903 97.4000191,0.20903 48.700176,-0.20903 99.072526,-0.20903 148.608466,1.04507 5.85262,0.20902 12.541,-0.62704 19.64742,-1.4631 17.34817,-1.88113 36.78625,-3.97125 48.70017,6.4794 6.8974,6.2704 10.24143,15.67599 10.24143,29.05285 0,13.37686 -3.34403,22.78245 -10.45044,29.05286 -11.91393,10.65968 -31.56102,8.36051 -48.70018,6.27039 -7.10642,-0.83606 -14.00382,-1.67212 -19.64742,-1.46309 -70.22846,1.46309 -139.829856,1.25407 -213.402355,1.04507 -23.2004597,0 -47.23702,-0.20902 -71.48254,-0.20902 7.73349,2.09013 17.13882,3.97126 22.15527,4.18028 2.09025,0 4.18015,0 6.27037,0.20901 15.8850203,0.20904 34.06928,0.62707 44.10168,11.49576 5.43457,5.85237 7.94252,14.42191 7.52447,25.2906 -1.67184,32.18806 -28.8437297,32.60608 -50.58105,33.02412 -3.76239,0 -7.31547,0.20901 -10.86875,0.20901 -6.89742,0.41803 -15.8851,0.41803 -25.29043,0.41803 -12.54096,0 -32.39714,0 -40.75773,1.67211 6.89741,1.46309 22.9915,1.25408 34.06897,1.25408 14.21328,-0.20903 28.63505,-0.41802 39.08555,1.25408 21.7376403,3.55323 33.86025,16.09402 33.23319,34.69621 -0.62707,20.06527 -14.6308797,33.65115 -34.69602,33.44214 -22.57369,-0.20902 -45.56519,0 -67.72046,0.20901 -63.749245,0.41804 -129.588265,0.83606 -193.755305,-4.8073 -66.25746,-5.85237 -121.22799,-62.91301 -125.826,-109.732 -2.92634,-28.6348 -4.38919,-53.50741 -4.38919,-75.45381 0,-92.17485 27.58951,-131.46938 100.53525,-161.7763 81.30601,-33.86016 120.3916,-86.32252 122.89982,-164.70249 0,-2.50815 -0.41811,-5.64334 -0.83607,-8.98756 -1.46317,-10.45068 -3.97108,-26.3356699 15.25801,-29.8889199 12.95892,-2.71715999 25.49956,5.43436 36.99515,23.8275399 z m -35.9501,-15.88501 c -10.24172,1.88113 -10.45086,7.31547 -8.56957,20.27428 0.6271,3.55325 1.04506,7.10646 1.04506,10.45068 -2.71721,82.14221 -43.26564,136.90371 -127.91628,172.22696 -45.56472,19.0202 -70.64649,41.17562 -83.60526,74.19973 -12.74962,32.60608 -15.04886,78.79801 -7.31537,154.66984 4.38919,42.84774 56.85166,96.77317 118.30165,102.20752 63.95806,5.64336 129.5881,5.22534 192.919065,4.80731 22.15543,-0.20902 45.35591,-0.20902 67.9296,-0.20902 15.4669699,0 25.9174203,-9.82364 26.3354603,-25.29062 0,-0.41802 0,-0.62704 0,-1.04506 0,-17.34811 -14.2128402,-23.20047 -26.3354603,-25.29062 -9.61477,-1.46308 -24.03654,-1.46308 -37.62272,-1.25407 -26.54446,0.41801 -44.310685,0.62705 -45.355745,-9.19659 -0.41812,-1.6721 0,-3.34421 1.04506,-4.59828 3.971385,-5.22534 18.602305,-5.85239 50.999445,-5.85239 9.40533,0 18.39301,0 24.87231,-0.41802 3.55344,-0.20903 7.52448,-0.20903 11.07786,-0.20903 25.4996903,-0.41802 41.1757,-2.29914 42.42984,-25.08159 0.41771,-8.56955 -1.25414,-14.83996 -5.22557,-19.22922 -7.73347,-8.15154 -23.2004597,-8.56956 -38.24939,-8.77857 -2.09022,0 -4.18012,0 -6.27032,-0.20903 -2.50823,0 -39.29456,-5.0163 -41.38467,-14.21287 -0.41812,-2.09015 0.20995,-4.8073 3.55327,-6.2704 l 0.83609,-0.41803 1.04489,0 c 29.053,0 57.6877103,0 85.48667,0.20901 73.572499,0.20902 142.964865,0.41802 213.193345,-1.04507 6.27065,-0.20903 13.37707,0.62703 20.90154,1.46309 16.30306,1.88113 33.23288,3.97125 42.2205,-4.18024 5.01651,-4.5983 7.52446,-11.91377 7.52446,-22.78246 0,0 0,0 0,0 0,-10.6597 -2.50795,-18.18416 -7.52446,-22.57344 -8.98762,-8.15153 -25.91744,-6.2704 -42.2205,-4.3893 -7.52447,0.83606 -14.4222,1.67212 -20.90154,1.46308 -49.32692,-1.25406 -99.69928,-1.25406 -148.399456,-1.04504 -31.979059,0 -65.002919,0.20902 -97.4000091,-0.20902 -2.7172998,0 -6.0616599,0.418 -9.6146899,0.62704 -9.40571,1.04508 -20.06554,2.29914 -27.17195,-3.55322 -3.76209,-3.13519 -5.85219,-7.94251 -6.27032,-14.21291 -1.25403,-19.43824 16.72119,-21.5284 29.88889,-23.20047 3.76239,-0.41804 7.10641,-0.83606 10.2417501,-1.46312 C 66.423435,290.45319 134.98005,274.7772 204.37244,259.72823 c 14.42186,-3.13522 29.47079,-6.27041 35.11406,-15.67601 3.13533,-5.01633 3.55338,-11.91377 1.04511,-20.90132 -5.64326,-21.73738 -20.06512,-19.64726 -43.26561,-14.42193 l -3.34434,0.83606 C 103.00099,229.83931 6.8547653,250.74067 -92.008415,271.64198 l -0.41796,0 c -27.798975,5.85236 -59.360045,12.54081 -80.888385,-16.72106 -19.64736,-26.75372 -6.27032,-48.90912 6.89742,-70.22849 2.09027,-3.34421 4.18054,-6.68844 6.06135,-10.03263 25.08161,-44.31085 46.81891,-91.75683 14.83989,-142.96512 -9.40532,-15.04894 -19.22909,-21.7373699 -28.84371,-20.06526 z"
     class="st0" /></svg>