<?xml version="1.0" encoding="UTF-8" standalone="no"?>
<!-- Generator: Adobe Illustrator 21.0.0, SVG Export Plug-In . SVG Version: 6.00 Build 0)  -->

<svg
   xmlns:dc="http://purl.org/dc/elements/1.1/"
   xmlns:cc="http://creativecommons.org/ns#"
   xmlns:rdf="http://www.w3.org/1999/02/22-rdf-syntax-ns#"
   xmlns:svg="http://www.w3.org/2000/svg"
   xmlns="http://www.w3.org/2000/svg"
   xmlns:sodipodi="http://sodipodi.sourceforge.net/DTD/sodipodi-0.dtd"
   xmlns:inkscape="http://www.inkscape.org/namespaces/inkscape"
   version="1.1"
   id="Camada_1"
   x="0px"
   y="0px"
   width="200"
   height="100"
   viewBox="0 0 288 560"
   xml:space="preserve"
   inkscape:version="0.91 r13725"
   sodipodi:docname="4.svg"><metadata
     id="metadata3445"><rdf:RDF><cc:Work
         rdf:about=""><dc:format>image/svg+xml</dc:format><dc:type
           rdf:resource="http://purl.org/dc/dcmitype/StillImage" /><dc:title></dc:title></cc:Work></rdf:RDF></metadata><defs
     id="defs3443" /><sodipodi:namedview
     pagecolor="#ffffff"
     bordercolor="#666666"
     borderopacity="1"
     objecttolerance="10"
     gridtolerance="10"
     guidetolerance="10"
     inkscape:pageopacity="0"
     inkscape:pageshadow="2"
     inkscape:window-width="1920"
     inkscape:window-height="1055"
     id="namedview3441"
     showgrid="false"
     inkscape:zoom="3.0964286"
     inkscape:cx="105.90067"
     inkscape:cy="37.194354"
     inkscape:window-x="1366"
     inkscape:window-y="0"
     inkscape:window-maximized="1"
     inkscape:current-layer="Camada_1" /><style
     type="text/css"
     id="style3429">
	.st0{fill:#FFFFFF;}
</style><path
     class="st0"
     d="m -89.085781,93.867592 c 17.359843,0.19955 32.524547,9.378188 36.914232,22.348078 2.993161,9.17867 -0.200441,18.35733 -8.779674,25.14156 l -0.399011,0.19954 c -9.577537,5.78653 -14.366682,9.37823 -16.960384,11.57313 4.988347,-0.19955 13.368865,-1.19725 18.556717,-1.99539 33.921374,-6.78423 67.6427758,-14.76569 100.167318,-22.54761 36.315567,-8.58005 73.828463,-17.35963 111.540853,-24.74248 4.38968,-0.79815 9.37818,-2.39443 14.56603,-3.79118 14.16718,-4.190288 30.32955,-8.979158 42.10208,-1.795848 7.18334,4.389798 11.57333,12.171718 13.96752,24.143918 2.195,11.17401 0.79817,19.95361 -3.99052,26.5383 -8.18101,11.37359 -24.9422,13.56848 -39.70789,15.56382 -5.38735,0.79815 -10.5752,1.39679 -15.16469,2.39446 -30.52921,7.18333 -61.45726,13.96753 -91.587002,20.55225 -32.325045,6.98374 -65.6477522,14.36659 -98.171988,22.14852 -2.793497,0.5986 -5.786671,0.9977 -8.97918,1.39675 -13.568357,1.59631 -19.754184,3.39213 -19.355186,12.17172 0.20044,4.19026 1.396841,7.1833 3.392329,8.97915 4.190022,3.79118 12.969697,3.39211 20.552207,2.79348 2.593991,-0.19953 5.188155,-0.39905 7.582338,-0.19953 52.877092,0.19953 106.552505,0.19953 158.431932,0.19953 33.92106,0 67.64277,0 101.56384,0 1.99549,0 3.99083,0 6.18582,0 13.76802,-0.19953 29.53139,-0.39905 38.90942,8.97916 5.18815,5.18794 7.78184,12.77032 7.78184,22.5476 0,0 0,0 0,0 0,9.77728 -2.59369,17.35967 -7.98135,22.54762 -9.57754,9.37817 -25.54055,9.37817 -39.70758,9.17868 -1.79599,0 -3.79132,0 -5.587,0 -39.30873,0.19953 -79.21612,0.19953 -117.92618,0.19953 -48.088091,0 -97.972331,0 -146.858581,0.19955 -1.596333,0 -3.39233,0 -5.187852,-0.19955 -6.983835,-0.19953 -14.765693,-0.39905 -18.55702,3.1926 -1.995489,1.79584 -2.793656,4.58934 -2.993161,8.58004 -0.200586,7.38287 4.988492,9.37823 17.160193,11.17405 2.394486,0.39908 4.788986,0.59861 6.983677,1.19722 29.3318805,6.78424 59.262263,13.16937 88.19498,19.55458 38.111558,8.38053 77.619794,16.76102 116.329854,26.13925 4.19018,0.99766 8.77967,1.79581 13.76802,2.39443 14.96519,2.39441 31.92588,4.9884 39.90738,16.76104 4.78869,6.98378 5.58686,16.16247 2.79336,27.73556 -2.39435,9.77728 -6.98384,16.96057 -13.56852,20.75176 -12.17154,7.18333 -28.73306,2.79354 -43.09975,-0.99766 -4.19033,-1.19723 -8.18101,-2.1949 -11.77283,-2.99305 -37.51243,-7.58238 -75.424481,-15.9629 -111.939862,-24.1439 -33.521902,-7.58238 -68.241136,-15.16477 -102.561508,-22.14852 -3.591519,-0.79814 -7.382846,-2.19493 -11.573026,-3.79119 -13.768021,-5.38748 -20.552509,-6.98378 -24.144028,2.19491 -1.795839,4.58933 -1.995344,8.18097 -0.798167,10.77494 2.394658,4.98841 10.775163,7.38284 18.15801,9.57772 3.990529,1.19725 7.781857,2.19494 10.974365,3.79121 49.684726,23.34575 100.765983,45.89336 150.051251,67.64282 9.178835,3.99073 18.158015,7.98145 27.336385,12.17173 12.97017,5.78653 21.35068,13.36893 24.54304,22.5476 2.79366,7.98144 1.79599,16.76105 -2.7932,26.13925 -4.19049,8.181 -9.7775,13.56848 -16.96068,15.96291 -8.77968,2.79351 -19.15569,1.19722 -31.327378,-4.98841 -6.58468,-3.39212 -13.767867,-6.38516 -20.552055,-9.17867 l -1.79599,-0.79814 C 46.59909,528.45774 24.84956,518.48093 3.6988489,508.70365 -80.705104,470.19315 -168.10192,430.08634 -269.26707,437.86827 c -51.67991,3.99071 -100.96517,-27.3365 -128.30186,-81.41082 -8.18101,-15.96292 -10.3757,-32.9235 -10.3757,-50.08363 0,-10.37592 0.79817,-20.95131 1.59633,-31.12768 0.79785,-11.17403 1.79553,-22.74712 1.59602,-33.72164 0,-1.19721 0,-2.59397 0,-3.7912 0,-80.81218 46.89108,-133.48979 125.90737,-141.072168 55.27175,-5.18794 111.93985,-4.19026 166.61294,-3.19259 7.38284,0.19954 15.364345,0.39908 23.146189,0.39908 z M -278.44574,104.64255 c -75.62413,7.18332 -119.92135,58.26463 -118.52468,136.6824 0.20058,11.37355 -0.79817,23.14621 -1.59634,34.51976 -2.19469,27.53604 -4.19002,53.47575 7.78201,77.02102 25.93986,51.28087 72.23227,80.81224 120.71952,77.22057 103.16017,-7.78192 191.55512,32.52443 276.7569327,71.63355 21.1507113,9.57775 42.9005493,19.55456 64.6499293,28.73324 l 1.795527,0.79815 c 6.983839,2.99303 14.167181,5.98607 21.151175,9.57773 9.976546,5.18796 18.556716,6.78424 25.141396,4.58934 5.18785,-1.59629 9.17868,-5.58701 12.3715,-11.97218 2.39419,-4.78887 3.59136,-9.17867 3.59136,-13.36893 0,-2.39444 -0.39901,-4.38981 -1.19717,-6.58471 -2.59385,-6.98376 -9.37834,-13.16939 -20.3527,-17.95827 -9.17868,-3.99071 -18.157866,-7.98145 -27.336391,-12.17171 C 37.021248,461.4135 -13.860502,438.8659 -63.744575,415.52017 c -2.594006,-1.19723 -6.185525,-2.19492 -9.777347,-3.39212 -8.979179,-2.59396 -19.155378,-5.58701 -23.146211,-13.76802 -2.394502,-4.78887 -2.194992,-10.57541 0.598675,-17.35965 6.983677,-17.55921 23.545353,-10.97452 34.519561,-6.78423 3.791485,1.39673 7.183341,2.79349 10.176515,3.39209 34.320213,6.9838 69.0396,14.76569 102.76116,22.34807 36.515071,8.181 74.427122,16.56153 111.740352,24.14391 3.79133,0.79815 7.98151,1.79583 12.3715,2.99306 12.9697,3.39207 27.73539,7.38282 37.11373,1.99534 4.78869,-2.7935 7.98151,-7.98144 9.77704,-15.76337 2.19499,-9.3782 1.59633,-16.36198 -1.79553,-21.54991 -5.98648,-8.97916 -20.55251,-11.17405 -34.52004,-13.36895 -5.18784,-0.79815 -9.97669,-1.59628 -14.36668,-2.59395 -38.51056,-9.37823 -78.01848,-17.75876 -116.129883,-26.13927 -28.932717,-6.18563 -58.8632564,-12.77031 -88.194979,-19.55456 -1.795996,-0.39907 -3.990991,-0.79815 -6.185985,-0.9977 -9.577524,-1.39673 -23.944062,-3.39209 -23.944062,-18.55686 0,-0.19954 0,-0.3991 0,-0.59861 0.200428,-6.18564 1.995186,-10.97451 5.387358,-14.16708 6.185511,-5.78657 15.763352,-5.58702 24.343533,-5.38748 1.795523,0 3.392014,0.19954 4.988347,0 49.085753,-0.19954 98.77049,-0.19954 147.058091,-0.19954 38.71021,0 78.6176,0 117.92601,-0.19955 1.79584,0 3.79133,0 5.58717,0 12.57069,0.19955 26.73772,0.19955 33.92106,-6.78419 3.79133,-3.79121 5.58701,-9.17869 5.58701,-16.76108 0,0 0,0 0,0 0,-7.58238 -1.79568,-13.16939 -5.58701,-16.76106 -6.98369,-6.98375 -20.3527,-6.78424 -33.3224,-6.5847 -2.19499,0 -4.19049,0 -6.18583,0 -33.92106,0 -67.64262,0 -101.56399,0 -51.879423,0 -105.554683,0 -158.431922,-0.19954 -2.194533,0 -4.589191,0.19954 -7.183196,0.19954 -9.17883,0.5986 -19.554534,1.19723 -26.338706,-4.9884 -3.791328,-3.39213 -5.786514,-8.18098 -6.185525,-14.56616 -0.997816,-17.16012 15.563557,-19.15548 26.338562,-20.55223 2.993161,-0.39909 5.786513,-0.79814 8.181013,-1.19724 32.7241994,-7.7819 66.046599,-15.16475 98.371484,-22.14852 29.93055,-6.58469 61.05826,-13.36894 91.38781,-20.55223 4.98819,-1.19724 10.3757,-1.79584 15.96255,-2.59399 13.76833,-1.79584 27.93536,-3.79118 34.12088,-12.17171 3.39201,-4.78887 4.38968,-11.37356 2.59415,-20.55224 -1.79599,-9.57773 -5.18815,-15.56383 -10.1765,-18.75642 -8.77967,-5.387488 -22.54754,-1.39675 -35.7169,2.59396 -5.38766,1.5963 -10.37601,2.99305 -15.16485,3.99074 -37.71239,7.38284 -75.025626,16.16246 -111.341194,24.7425 -32.7240449,7.78194 -66.645417,15.76338 -100.566475,22.54763 l -0.200427,0 c -20.552206,2.79348 -27.935053,3.19259 -29.930397,-2.19492 -1.596478,-4.58933 1.197178,-8.58007 22.747042,-21.94899 5.986019,-4.78885 7.981508,-10.3759 5.986019,-16.16244 -2.793194,-8.18099 -13.767863,-16.56152 -29.331722,-16.76106 -7.782002,-0.19955 -15.563856,-0.19955 -23.545366,-0.39905 -54.2736,-0.9977 -110.74267,-1.995388 -165.41559,3.19256 z"
     id="path3433"
     style="fill:#ffffff"
     inkscape:connector-curvature="0" /><style
     id="style3429-3"
     type="text/css">
	.st0{fill:#FFFFFF;}
</style><style
     type="text/css"
     id="style3429-1">
	.st0{fill:#FFFFFF;}
</style></svg>