<?xml version="1.0" encoding="UTF-8" standalone="no"?>
<!-- Generator: Adobe Illustrator 21.0.0, SVG Export Plug-In . SVG Version: 6.00 Build 0)  -->

<svg
   xmlns:dc="http://purl.org/dc/elements/1.1/"
   xmlns:cc="http://creativecommons.org/ns#"
   xmlns:rdf="http://www.w3.org/1999/02/22-rdf-syntax-ns#"
   xmlns:svg="http://www.w3.org/2000/svg"
   xmlns="http://www.w3.org/2000/svg"
   xmlns:sodipodi="http://sodipodi.sourceforge.net/DTD/sodipodi-0.dtd"
   xmlns:inkscape="http://www.inkscape.org/namespaces/inkscape"
   version="1.1"
   id="Camada_1"
   x="0px"
   y="0px"
   width="200"
   height="100"
   viewBox="0 0 288 560"
   xml:space="preserve"
   inkscape:version="0.91 r13725"
   sodipodi:docname="5.svg"><metadata
     id="metadata3445"><rdf:RDF><cc:Work
         rdf:about=""><dc:format>image/svg+xml</dc:format><dc:type
           rdf:resource="http://purl.org/dc/dcmitype/StillImage" /><dc:title></dc:title></cc:Work></rdf:RDF></metadata><defs
     id="defs3443" /><sodipodi:namedview
     pagecolor="#ffffff"
     bordercolor="#666666"
     borderopacity="1"
     objecttolerance="10"
     gridtolerance="10"
     guidetolerance="10"
     inkscape:pageopacity="0"
     inkscape:pageshadow="2"
     inkscape:window-width="1920"
     inkscape:window-height="1055"
     id="namedview3441"
     showgrid="false"
     inkscape:zoom="2.1895056"
     inkscape:cx="75.638471"
     inkscape:cy="4.6121549"
     inkscape:window-x="1366"
     inkscape:window-y="0"
     inkscape:window-maximized="1"
     inkscape:current-layer="Camada_1" /><style
     type="text/css"
     id="style3429">
	.st0{fill:#FFFFFF;}
</style><path
     class="st0"
     d="m -127.38959,41.8344 c 7.71836,26.578692 3.85902,55.068321 -11.37464,82.51558 -7.92161,14.41854 -17.46769,28.48963 -26.60796,42.03953 -4.06257,5.9064 -8.12468,12.1602 -11.98402,18.24029 -3.45287,6.94868 -1.8279,15.28708 4.46873,22.06203 6.09341,6.42755 25.18609,20.15125 72.10584,11.29159 96.6834408,-18.06654 192.757019,-35.95936 282.7372,-52.63622 20.1084,-3.64805 47.7324,-8.85957 56.06018,16.67686 2.84346,9.03328 2.23405,16.67682 -2.0313,22.58316 -7.3122,10.24936 -22.95201,13.72368 -39.81079,16.85061 -14.21809,2.60573 -28.23294,5.21145 -42.45102,7.64355 -52.81008,9.55439 -107.44836,19.45626 -160.6645992,30.57413 -3.6562598,0.6949 -7.9216098,1.04231 -12.3900398,1.38981 -15.843051,1.216 -25.389471,2.77942 -24.373901,13.20249 0.40632,3.82173 1.62497,6.42746 3.85903,7.99097 4.67182,3.30061 14.21807,2.2583 22.545851,1.38971 4.26566,-0.34741 8.1246898,-0.86861 11.7809498,-0.86861 49.9662992,0.5212 100.7450882,0.5212 149.8993692,0.34749 34.32633,0 69.6687,0 104.40134,0.17371 2.84379,0 5.68756,0 8.7341,-0.17371 18.88991,-0.5212 44.88846,-1.21601 46.31036,25.8838 0.6094,9.90187 -2.03129,17.19801 -7.92145,22.40955 -9.9529,8.68585 -26.60811,8.68585 -41.43545,8.51206 -2.23437,0 -4.26566,0 -6.29695,0 -42.6541,0.3475 -85.91776,0.3475 -127.75969,0.3475 -43.06041,0 -87.74596,0 -131.619179,0.34741 -2.84346,0 -5.89032,-0.17371 -9.343031,-0.52112 -13.60899,-1.216 -20.31179,-0.8686 -21.53028,6.42747 -0.6094,3.64811 -0.20403,6.25383 1.42157,8.16475 3.24994,3.82173 11.78095,4.69034 19.093,5.55893 3.249771,0.34742 6.093391,0.69491 8.937171,1.21602 29.858049,5.90635 60.528589,11.46528 89.980339,16.67682 37.1701,6.77495 75.76208,13.72369 113.33851,21.36716 3.65595,0.69489 7.71837,1.38979 11.98372,1.91091 14.82749,2.25831 31.68611,4.69033 40.01387,14.76598 4.46843,5.55896 5.89032,13.02872 3.85935,21.88828 -2.0313,9.55447 -6.70312,16.15571 -13.609,19.97753 -12.1868,6.60124 -29.04557,2.95322 -44.07599,-0.3475 -3.65594,-0.86852 -7.10912,-1.56341 -10.35874,-2.08461 -34.32681,-6.08004 -69.05945,-12.85499 -102.57361,-19.28254 -37.77951,-7.29615 -76.9808992,-14.76591 -115.57306,-21.54094 -3.65578,-0.69483 -7.51528,-1.73712 -11.57738,-2.95313 -15.63998,-4.34294 -25.38964,-6.42755 -29.45174,2.60572 -1.42189,3.47433 -1.62497,6.08013 -0.40632,8.16474 2.64037,4.34284 11.37431,6.60117 19.29591,8.51208 4.26567,1.0423 8.53085,2.08461 11.98403,3.47441 36.967021,14.76591 74.74653,29.18442 111.30739,43.08172 21.12397,7.99105 43.06042,16.32942 64.38747,24.66787 13.20283,5.03783 40.4202,15.63451 28.03016,40.1286 -4.26551,8.51215 -10.35905,14.07109 -18.2805,16.50311 -12.99929,4.16923 -28.23309,-1.21601 -38.795231,-5.38514 C 79.38227,546.48236 61.50808,539.70741 44.0399,533.10616 31.04062,528.24212 17.43193,523.20429 4.2292605,517.99275 -73.97013,487.07114 -154.81036,455.1072 -250.07162,461.53475 c -58.29406,3.99553 -111.30769,-22.93066 -149.69612,-75.91434 l -0.40632,-0.6949 c -10.56215,-25.71009 -15.84306,-51.07277 -15.84306,-75.91434 0,-25.71009 5.68724,-50.89907 16.85831,-75.39315 l 0.40632,-0.6949 c 24.37389,-31.44274 58.09131,-54.1997 103.58918,-69.4868 66.21566,-22.40948 100.13615,-62.36439 103.18269,-121.949345 0.20418,-2.605749 0,-5.732661 -0.20403,-9.033275 -0.81248,-12.507638 -1.82804,-29.5319089 17.26495,-31.0953682 22.13954,-1.04229022 39.8108,13.8973672 47.52915,40.4760682 z M -173.49687,9.0018938 c -10.35906,0.8685771 -10.76539,9.9018532 -9.95274,23.7992292 0.20403,3.474353 0.40616,6.774977 0.20403,9.554421 -3.24995,61.669576 -39.60772,104.751366 -108.26085,128.029466 -43.66982,14.76594 -76.37149,36.65432 -99.72984,66.70733 -21.53029,46.90355 -21.93645,94.67579 -1.01525,145.74855 36.5607,50.37796 86.93333,76.08805 141.77469,72.26631 97.29239,-6.77495 179.14787,25.71018 258.3631305,56.9792 12.9994395,5.21154 26.6081195,10.24929 39.6077195,15.11341 17.46771,6.60125 35.54514,13.37621 53.2164,20.49855 14.42116,5.90645 24.77975,7.64357 32.29504,5.21154 5.68755,-1.73721 10.15597,-5.90635 13.60899,-12.68138 7.71853,-15.11333 -3.45302,-23.10429 -23.96758,-31.09534 -21.53029,-8.33836 -43.26366,-16.67681 -64.38794,-24.66778 -36.56071,-13.89739 -74.543449,-28.48959 -111.51047,-43.25559 -2.84362,-1.21601 -6.7028,-2.08453 -10.76523,-3.12692 -9.54625,-2.43201 -20.1084,-5.03775 -24.37359,-12.1601 -2.23437,-3.82183 -2.23437,-8.51216 0.20403,-13.7237 7.10896,-15.98191 25.79548,-10.77046 39.60725,-6.77494 3.85949,1.04231 7.51528,2.08461 10.76537,2.60573 38.59199048,6.77495 77.79338,14.24479 115.77598,21.71465 33.514,6.42754 68.24696,13.20248 102.37021,19.28254 3.45317,0.69489 6.90589,1.38979 10.76522,2.2584 13.20252,2.95313 28.43617,6.25376 37.57643,1.21602 5.07783,-2.77953 8.32776,-7.81736 9.95289,-15.46083 1.62465,-7.12244 0.60925,-12.68137 -2.64069,-16.6769 -6.29648,-7.64354 -21.32705,-9.90178 -34.73265,-11.81269 -4.46875,-0.69489 -8.53086,-1.21602 -12.39019,-2.08461 -37.57643,-7.64356 -75.96534,-14.59221 -113.13559,-21.36717 -29.65483,-5.38532 -60.12213,-10.94425 -90.183269,-16.8506 -2.43745,-0.5212 -5.07783,-0.69481 -8.124691,-1.04231 -8.93717,-1.04231 -19.09299,-2.08462 -24.57714,-8.16466 -3.04655,-3.47433 -4.06212,-7.99096 -3.04655,-13.3762 2.64038,-14.5923 19.29593,-13.2025 30.467471,-12.16019 3.04654,0.1737 5.89031,0.5211 8.32745,0.5211 43.873219,-0.3474 88.558609,-0.3474 131.619029,-0.3474 41.84209,0 85.10559,0 127.75983,-0.34749 2.0313,0 4.26568,0 6.50004,0 13.81178,0.17379 28.23294,0.17379 35.54514,-6.42755 4.2652,-3.64802 5.89032,-9.38067 5.484,-17.19793 -1.01557,-18.93513 -15.03058,-19.97744 -37.98259,-19.28263 -3.04655,0 -6.0934,0.17379 -9.14041,0.17379 -34.73266,-0.17379 -70.27779,-0.17379 -104.40135,-0.17379 -49.153821,0 -99.93308,0 -149.8993792,-0.34741 -3.04686,0 -6.7027998,0.34741 -10.7652198,0.69491 -9.952741,1.0423 -21.327051,2.25831 -28.639261,-2.95322 -4.06257,-2.77952 -6.29663,-7.12244 -6.70279,-12.85509 -1.62497,-18.06654 18.48327,-19.63004 31.6861,-20.67226 4.265351,-0.34749 8.124691,-0.69489 11.3743108,-1.21601 C 44.4481,241.95638 99.086229,232.05451 152.09955,222.50014 c 14.21808,-2.6058 28.23293,-5.03783 42.45101,-7.64356 15.03058,-2.7795 29.04589,-5.90642 34.52989,-13.72368 3.04653,-4.3429 3.4527,-9.90183 1.01556,-17.02423 -5.68738,-17.89288 -22.13953,-16.1557 -46.51343,-11.81276 -90.183421,16.67681 -186.0542392,34.39592 -282.73738,52.63626 -51.59124,9.72815 -73.32463,-6.42755 -80.23049,-13.72371 -8.32778,-8.85946 -10.56215,-20.15112 -5.68756,-29.35813 l 0.20418,-0.17373 c 4.06242,-6.2538 8.12454,-12.33391 12.18712,-18.41397 9.13993,-13.54996 18.48326,-27.4473 26.20179,-41.51841 14.21793,-25.883819 18.07742,-52.809941 10.76522,-77.825207 -2.03129,-9.033285 -12.18711,-37.0017241 -37.77951,-34.9171192 z"
     id="path3431"
     style="fill:#ffffff"
     inkscape:connector-curvature="0" /><style
     id="style3429-6"
     type="text/css">
	.st0{fill:#FFFFFF;}
</style><style
     type="text/css"
     id="style3429-1">
	.st0{fill:#FFFFFF;}
</style></svg>